<?xml version="1.0" standalone="no"?>
<!DOCTYPE svg PUBLIC "-//W3C//DTD SVG 20010904//EN"
 "http://www.w3.org/TR/2001/REC-SVG-20010904/DTD/svg10.dtd">
<svg version="1.0" xmlns="http://www.w3.org/2000/svg"
 width="48.000000pt" height="48.000000pt" viewBox="0 0 48.000000 48.000000"
 preserveAspectRatio="xMidYMid meet">
<metadata>
Created by potrace 1.16, written by Peter Selinger 2001-2019
</metadata>
<g transform="translate(0.000000,48.000000) scale(0.100000,-0.100000)"
fill="#000000" stroke="none">
<path d="M12 443 c2 -22 9 -29 30 -31 23 -3 29 -10 38 -45 7 -23 17 -62 24
-87 13 -43 12 -46 -10 -63 -32 -24 -33 -78 -1 -104 12 -10 21 -26 19 -36 -7
-33 25 -67 63 -67 38 0 55 20 55 64 0 22 5 26 28 26 25 0 29 -4 29 -29 0 -41
19 -61 58 -61 38 0 57 18 58 57 1 16 9 33 17 40 12 9 12 16 4 30 -10 16 -30
19 -155 23 l-144 6 141 2 c107 1 144 5 153 16 14 17 51 142 51 173 0 19 -5 23
-34 23 -25 0 -36 5 -41 19 -23 73 -122 96 -176 42 -16 -16 -29 -37 -29 -45 0
-10 -9 -16 -24 -16 -20 0 -27 8 -38 43 -13 42 -13 42 -66 45 -53 3 -53 3 -50
-25z m330 -13 c31 -24 39 -59 22 -99 -21 -51 -92 -59 -131 -15 -66 73 33 175
109 114z m-109 -144 c39 -29 92 -25 128 10 16 15 29 36 29 47 0 14 5 17 23 11
12 -3 23 -8 25 -9 2 -2 -5 -34 -15 -72 l-18 -68 -110 0 -110 0 -18 68 c-18 67
-18 69 0 82 16 12 19 10 29 -18 6 -17 22 -40 37 -51z"/>
</g>
</svg>
