<svg width="80" height="78" viewBox="0 0 80 78" fill="none" xmlns="http://www.w3.org/2000/svg">
<g clip-path="url(#clip0_532_882)">
<path d="M22.9007 72.8598C24.306 72.8598 25.4453 71.7206 25.4453 70.3153C25.4453 68.91 24.306 67.7708 22.9007 67.7708C21.4954 67.7708 20.3562 68.91 20.3562 70.3153C20.3562 71.7206 21.4954 72.8598 22.9007 72.8598Z" stroke="#9CA6C3" stroke-width="9" stroke-linecap="round" stroke-linejoin="round"/>
<path d="M50.8906 72.8598C52.2959 72.8598 53.4351 71.7206 53.4351 70.3153C53.4351 68.91 52.2959 67.7708 50.8906 67.7708C49.4853 67.7708 48.3461 68.91 48.3461 70.3153C48.3461 71.7206 49.4853 72.8598 50.8906 72.8598Z" stroke="#9CA6C3" stroke-width="9" stroke-linecap="round" stroke-linejoin="round"/>
<path d="M2.54456 19.4246H12.7227L19.542 53.4958C19.7747 54.6673 20.412 55.7196 21.3424 56.4686C22.2728 57.2175 23.4369 57.6154 24.6311 57.5925H49.3639C50.558 57.6154 51.7222 57.2175 52.6526 56.4686C53.5829 55.7196 54.2203 54.6673 54.4529 53.4958L58.5242 32.1472H15.2672" stroke="#9CA6C3" stroke-width="6" stroke-linecap="round" stroke-linejoin="round"/>
</g>
<g clip-path="url(#clip1_532_882)">
<path d="M43.6353 43.7666C41.4399 43.0326 39.1059 41.469 36.7007 39.1298C33.6285 36.1377 30.8212 32.2245 28.7962 28.1113C26.6093 23.6828 25.5267 19.4506 25.6451 15.8673C25.7594 12.4603 27.0034 9.69173 29.2454 7.86217C34.1777 3.83572 40.4716 6.81976 44.7198 10.9564C47.1864 13.3627 49.2669 16.1099 50.8893 19.1034C54.9996 15.204 61.7825 11.3595 67.8726 11.4358C70.9749 11.4764 73.5643 12.4945 75.5932 14.4699C77.7893 16.6096 78.4494 19.7479 77.4538 23.3014C76.4822 26.7656 73.9737 30.5031 70.1946 34.111C62.6888 41.2888 50.5831 45.7638 43.9917 43.869C43.8702 43.8341 43.7488 43.7992 43.6305 43.7652" fill="#DC7CA0"/>
</g>
<g clip-path="url(#clip2_532_882)">
<path d="M48.2617 46.455C41.6107 45.5425 32.6516 36.0212 28.892 25.7741C27.0014 20.6214 26.2929 15.8766 26.8345 12.0487C27.3986 8.11666 29.2689 5.29096 32.0958 4.12208C34.7086 3.02934 37.4423 3.12591 40.2168 4.38525C45.6737 6.88091 50.1516 13.5319 52.2227 19.1158C54.8902 16.8472 57.8657 15.015 61.0464 13.6827C66.5193 11.3945 73.3481 11.1068 76.1004 17.1595C77.3518 19.9102 77.3304 23.166 76.0417 26.5748C74.6846 30.1593 71.9844 33.8761 68.2343 37.3226C64.7507 40.5254 60.6515 43.201 56.6923 44.8563C53.5908 46.1604 50.8756 46.7064 48.6211 46.5043C48.5002 46.4877 48.3777 46.4709 48.2568 46.4543L48.2617 46.455ZM36.5991 7.18917C35.5123 7.03435 34.402 7.18005 33.3771 7.61196C31.3567 8.45561 30.6271 10.7701 30.3698 12.5614C30.052 14.782 30.1146 18.6339 32.2244 24.3788C35.8258 34.1994 44.1801 42.3128 48.9735 42.7508C50.6439 42.9021 52.8708 42.4206 55.4038 41.3585C62.9911 38.1876 70.4318 31.2502 72.7115 25.2254C73.6355 22.787 73.6849 20.6317 72.8613 18.8201C70.7172 14.1031 64.2525 16.3677 62.3209 17.1751C59.3894 18.4005 56.1406 20.3349 53.5284 22.8114C54.5257 25.7988 55.2847 28.8711 54.9769 32.0478C54.7333 34.5657 53.89 36.4996 52.5397 37.6411C52.0623 38.0464 51.5121 38.3454 50.9233 38.5196C50.3345 38.6938 49.7197 38.7395 49.1169 38.6538L49.0702 38.6474C46.2128 38.2554 44.5469 35.2109 45.0183 31.2246C45.4325 27.7269 47.0991 24.5913 49.3885 21.9304L49.1801 21.3552L48.9563 20.7364C47.2447 15.9905 43.3178 9.93059 38.7399 7.83746C38.0558 7.51948 37.3317 7.3037 36.5883 7.19633L36.5991 7.18917ZM50.7492 26.0504C49.5988 27.7571 48.8065 29.6307 48.5697 31.6323C48.3928 33.1371 48.6886 34.7984 49.5971 34.9144C49.724 34.9386 49.8548 34.9333 49.9804 34.8988C50.1059 34.8644 50.2232 34.8016 50.3239 34.7149C50.8799 34.2532 51.2818 33.1304 51.4188 31.7136C51.5967 29.8664 51.289 27.9804 50.7517 26.0438" fill="#E786AB"/>
</g>
<defs>
<clipPath id="clip0_532_882">
<rect width="61.0687" height="61.0687" fill="white" transform="translate(0 16.8801)"/>
</clipPath>
<clipPath id="clip1_532_882">
<rect width="52.2585" height="38.2405" fill="white" transform="translate(29.7755) rotate(16.0378)"/>
</clipPath>
<clipPath id="clip2_532_882">
<rect width="51.1285" height="41.0913" fill="white" transform="translate(28.1808 2.22363) rotate(7.81211)"/>
</clipPath>
</defs>
</svg>
